<?xml version="1.0" encoding="utf-8"?>
<!-- Generator: Adobe Illustrator 24.2.2, SVG Export Plug-In . SVG Version: 6.00 Build 0)  -->
<svg version="1.1" xmlns="http://www.w3.org/2000/svg" xmlns:xlink="http://www.w3.org/1999/xlink" x="0px" y="0px"
	 viewBox="0 0 2000 2000" style="enable-background:new 0 0 2000 2000;" xml:space="preserve">
<style type="text/css">
	.st0{fill:#6200EE;}
	.st1{fill:#FFFFFF;}
	.st2{display:none;fill:none;stroke:#FFFFFF;stroke-width:3;stroke-miterlimit:10;}
</style>
<g id="bg">
	<rect class="st0" width="2000" height="2000"/>
</g>
<g id="Layer_2">
	<g>
		<g>
			<path class="st1" d="M1048.32,411.11L1048.32,411.11L611.47,847.95c-111.02,111.02-111.02,291.01,0,402.03v0l0,0l7.81,7.81
				c53.77,53.77,140.94,53.77,194.7,0l190.87-190.87l-7.81-7.81c-53.76-53.76-140.93-53.76-194.69-0.01l245.97-245.97
				C1159.33,702.12,1159.33,522.13,1048.32,411.11z"/>
			<path class="st1" d="M1388.53,750.02L1388.53,750.02l-7.81-7.81c-53.77-53.77-140.94-53.77-194.7,0L989.92,938.29l7.81,7.82
				c53.76,53.76,140.93,53.76,194.7,0.01l-240.74,240.74c-111.02,111.02-111.02,291.01,0,402.03h0l436.84-436.84
				C1499.54,1041.03,1499.54,861.03,1388.53,750.02z"/>
		</g>
	</g>
	<circle class="st2" cx="1000" cy="1000" r="1000"/>
</g>
</svg>
